# xmcd CD database file
#
# Track frame offsets:
#	150
#	20087
#	36442
#	53887
#	76875
#	99875
#	119550
#	143237
#	163425
#
# Disc length: 2563 seconds
#
# Revision: 0
# Processed by: cddbd v1.4PL0 Copyright (c) Steve Scherf et al.
# Submitted via: CDex 1.50Beta3
#
DISCID=7b0a0109
DTITLE=Kitaro - TunHuang
DYEAR=1900
DGENRE=New Age
TTITLE0=Lord Of Wind
TTITLE1=Fata Margana
TTITLE2=Sacred Journey I
TTITLE3=Lord Of The Sand
TTITLE4=TunHuang
TTITLE5=Free Flight
TTITLE6=Mandala
TTITLE7=Tao
TTITLE8=Sacred Journey II
EXTD=
EXTT0=
EXTT1=
EXTT2=
EXTT3=
EXTT4=
EXTT5=
EXTT6=
EXTT7=
EXTT8=
PLAYORDER=
